<svg width="53" height="30" viewBox="0 0 53 30" fill="none" xmlns="http://www.w3.org/2000/svg">
    <path
        d="M15.9416 0L16.1008 3.95467L4.51516 4.00336L10.3049 13.9274L6.66017 15.817L0 3.40735L1.72873 0.432806L15.9416 0Z"
        fill="#2C3336" />
    <path
        d="M40.9546 14.1179C40.9546 21.6217 34.743 27.7048 27.0806 27.7048C19.4182 27.7048 13.2066 21.6217 13.2066 14.1179C13.2066 6.61412 19.4182 0.53107 27.0806 0.53107C34.743 0.53107 40.9546 6.61412 40.9546 14.1179Z"
        fill="#91D7FF" />
    <path
        d="M46.0472 13.9393L53 26.2339L51.3175 29.2696L37.1988 30L36.8691 26.0526L48.4871 25.7367L42.4675 15.9513L46.0472 13.9393Z"
        fill="#2C3336" />
    <path d="M18.3302 26.286L15.3007 23.4098L36.3424 2.32537L39.3428 5.19156L18.3302 26.286Z"
        fill="#2C3336" />
</svg>